<svg width="228" height="568" viewBox="0 0 228 568" fill="none" xmlns="http://www.w3.org/2000/svg">
<path d="M0 283.6V567.5L56.3 511.2C87.2 480.3 113.1 455 113.8 455C114.5 455 140.4 480.2 171.3 510.9L227.5 566.8L227.8 424.8C227.9 346.7 227.9 219.2 227.8 141.5L227.5 0.0999915L175.5 51.8C146.9 80.2 95.9 130.9 62.3 164.4L1 225.5V113.5V1.49999L57 57.5C87.8 88.3 113 113.2 113 112.9C113 112.5 10.2 9.39999 0.4 0.0999915C0.2 -0.100008 0 127.4 0 283.6ZM187.5 77L182.9 81.6L198.2 96.3L213.5 111L210.7 113.7L208 116.5L193 101.5L178 86.6L173.5 91L169 95.4L166.5 93C165.1 91.7 164 90.2 164 89.6C164 89 169.1 83.7 175.3 77.8L186.5 67.1L189.3 69.8L192 72.4L187.5 77ZM145 92.9C145.5 94 146 96.2 146 97.9C146 103.4 138.2 107 133.5 103.7C131.1 101.9 132.4 99.6 135.1 101C138.9 103.1 144.1 97.9 142.1 94.1C141.1 92.3 141.5 91 143.1 91C143.6 91 144.4 91.9 145 92.9ZM177 112.5L194.5 130L191.8 132.6L189.1 135.3L177.4 123.7C170.9 117.3 165.5 112.2 165.3 112.4C165.2 112.5 167.7 120.6 170.9 130.2L176.8 147.8L173.9 150.6L170.9 153.4L153.5 136C143.9 126.4 136 118 136 117.4C136 116.8 136.9 115.5 138 114.5C140.1 112.6 140.2 112.8 152.5 125C159.4 131.9 165 136.9 165 136.3C165 135.7 162.3 127.2 158.9 117.5L152.8 99.8L155.1 97.4C156.3 96.1 157.8 95 158.4 95C159 95 167.4 102.9 177 112.5ZM226.8 282.6L226.5 338L170.7 282.3L115 226.5L170.7 170.8L226.5 115L226.8 171.1C226.9 201.9 226.9 252.1 226.8 282.6ZM144.2 145.6L167.3 157.2L164.3 160.2L161.3 163.2L156 160.5L150.8 157.9L144.7 163.6C141.3 166.8 138.3 169.5 138.1 169.6C137.9 169.8 139.2 172.3 140.9 175.3L144 180.7L141.1 183.4L138.2 186.1L136.3 182.8C135.2 181 129.6 170.4 123.9 159.3L113.5 139.2L115.9 136.6C117.3 135.2 118.9 134 119.7 134C120.4 134 131.4 139.2 144.2 145.6ZM104.9 161.1C108.4 162.3 108.6 162.9 106.5 167C105.1 169.7 104.8 169.8 102 168.8C92.1 165.4 86.1 176.4 92.8 185.6C96.4 190.6 103.4 196.8 106.6 198C116.2 201.7 123.3 193.8 118.5 184.7C117.1 181.9 117.1 181.9 120.6 180.4C122.6 179.6 124.3 179 124.5 179.2C126.2 181.2 128.2 187.1 128.2 190.4C128.4 198.2 122 205.7 114.1 206.7C104.6 208 90.2 198.1 84.4 186.4C76.8 170.9 89.2 155.6 104.9 161.1ZM86.2 202.7L104 220.4L101.3 223.2L98.6 226L90.5 218L82.5 210L76.2 216.3L70 222.6L78 230.5L86 238.4L83.8 240.7C82.6 242 81.2 243 80.6 243C80 243 71.6 235.1 62 225.5L44.5 208L47.3 205.3L50 202.5L57.3 209.8L64.5 217L70.8 210.8L77 204.5L69.8 197.3L62.6 190.1L65 187.5C66.3 186.1 67.6 185 67.9 185C68.2 185 76.5 193 86.2 202.7ZM56.3 232.8L74.1 250.6L71.5 253L68.9 255.4L57.2 243.7C50.8 237.3 45.2 232 44.8 232C44.4 232 46.9 240.1 50.2 250.1L56.2 268.1L53.9 270.6C52.7 271.9 51.2 273 50.6 273C50 273 41.6 265.1 32 255.5L14.5 238L17.2 235.3L19.9 232.6L32.2 244.8C38.9 251.5 44.6 257 44.7 257C44.8 257 42.3 249.2 39 239.7C35.7 230.1 33 221.7 33 221C33 219.6 36.8 215 37.9 215C38.3 215 46.5 223 56.3 232.8ZM113 256V283H85.8H58.5L85.5 256C100.3 241.1 112.6 229 112.7 229C112.9 229 113 241.1 113 256ZM169.8 311.6L169.5 339.1H142.5H115.5L115.2 311.6L115 284H142.5H170L169.8 311.6ZM56.6 338.7C56.3 339 10.2 339.3 3.5 339C3 339 14.7 326.8 29.5 312L56.5 285L56.8 311.6C56.9 326.3 56.9 338.5 56.6 338.7ZM113 368.5V396H85.5H58V368.5V341H85.5H113V368.5ZM225 341.3C225 341.4 212.9 353.7 198 368.5L171 395.5V368.2V341H198C212.9 341 225 341.1 225 341.3ZM57.3 397.8L113 453.5L57 509.5L1 565.5V453.7C1 392.3 1.1 342 1.3 342C1.4 342 26.6 367.1 57.3 397.8ZM169 397.3C169 397.4 156.9 409.7 142 424.5L115 451.5V424.2V397H142C156.9 397 169 397.1 169 397.3Z" fill="#000085"/>
<path d="M128.7 153C131.3 157.9 133.8 162 134.1 162C134.8 162 143.2 153.8 142.8 153.5C141.9 152.9 124.7 144 124.4 144C124.1 144 126.1 148 128.7 153Z" fill="#000085"/>
<path d="M99.2 14.3L84.9 28.6L99 42.5C106.8 50.2 113.4 56.7 113.8 57C114.2 57.2 108.2 51 100.5 43.2L86.5 29L100.5 15C108.1 7.39999 114.2 0.799993 113.9 0.599993C113.6 0.299993 107 6.49999 99.2 14.3Z" fill="#000085"/>
<path d="M114 28.5C114 29 120.2 35.7 127.7 43.2L141.5 57L127.5 71C119.8 78.7 114 85 114.5 85C115.1 85 121.8 78.7 129.5 71L143.5 57L128.7 42.2C120.6 34.1 114 28 114 28.5Z" fill="#000085"/>
<path d="M98.5 496L84.5 510L99 524.5C106.9 532.4 113.6 538.7 113.9 538.4C114.2 538.2 108.1 531.6 100.5 524L86.5 510L100.5 496C108.2 488.3 114 482 113.5 482C112.9 482 106.2 488.3 98.5 496Z" fill="#000085"/>
<path d="M114.3 510.5C114.7 511 121 517.5 128.3 524.7L141.5 538L127.7 551.8C120.2 559.3 114 566 114 566.5C114 567 120.5 561 128.4 553.1C136.7 544.8 142.6 538.2 142.2 537.6C141.8 537 135.2 530.4 127.5 523C119.8 515.6 113.9 509.9 114.3 510.5Z" fill="#000085"/>
</svg>
