<svg xmlns="http://www.w3.org/2000/svg"><symbol id="logo" viewBox="0 0 228 568"><path d="M0 283.6v283.9l56.3-56.3c30.9-30.9 56.8-56.2 57.5-56.2.7 0 26.6 25.2 57.5 55.9l56.2 55.9.3-142c.1-78.1.1-205.6 0-283.3L227.5.1l-52 51.7c-28.6 28.4-79.6 79.1-113.2 112.6L1 225.5V1.5l56 56c30.8 30.8 56 55.7 56 55.4C113 112.5 10.2 9.4.4.1.2-.1 0 127.4 0 283.6zM187.5 77l-4.6 4.6 15.3 14.7 15.3 14.7-2.8 2.7-2.7 2.8-15-15-15-14.9-4.5 4.4-4.5 4.4-2.5-2.4c-1.4-1.3-2.5-2.8-2.5-3.4 0-.6 5.1-5.9 11.3-11.8l11.2-10.7 2.8 2.7 2.7 2.6-4.5 4.6zM145 92.9c.5 1.1 1 3.3 1 5 0 5.5-7.8 9.1-12.5 5.8-2.4-1.8-1.1-4.1 1.6-2.7 3.8 2.1 9-3.1 7-6.9-1-1.8-.6-3.1 1-3.1.5 0 1.3.9 1.9 1.9zm32 19.6l17.5 17.5-2.7 2.6-2.7 2.7-11.7-11.6c-6.5-6.4-11.9-11.5-12.1-11.3-.1.1 2.4 8.2 5.6 17.8l5.9 17.6-2.9 2.8-3 2.8-17.4-17.4c-9.6-9.6-17.5-18-17.5-18.6 0-.6.9-1.9 2-2.9 2.1-1.9 2.2-1.7 14.5 10.5 6.9 6.9 12.5 11.9 12.5 11.3 0-.6-2.7-9.1-6.1-18.8l-6.1-17.7 2.3-2.4c1.2-1.3 2.7-2.4 3.3-2.4.6 0 9 7.9 18.6 17.5zm49.8 170.1l-.3 55.4-55.8-55.7-55.7-55.8 55.7-55.7 55.8-55.8.3 56.1c.1 30.8.1 81 0 111.5zm-82.6-137l23.1 11.6-3 3-3 3-5.3-2.7-5.2-2.6-6.1 5.7c-3.4 3.2-6.4 5.9-6.6 6-.2.2 1.1 2.7 2.8 5.7l3.1 5.4-2.9 2.7-2.9 2.7-1.9-3.3c-1.1-1.8-6.7-12.4-12.4-23.5l-10.4-20.1 2.4-2.6c1.4-1.4 3-2.6 3.8-2.6.7 0 11.7 5.2 24.5 11.6zm-39.3 15.5c3.5 1.2 3.7 1.8 1.6 5.9-1.4 2.7-1.7 2.8-4.5 1.8-9.9-3.4-15.9 7.6-9.2 16.8 3.6 5 10.6 11.2 13.8 12.4 9.6 3.7 16.7-4.2 11.9-13.3-1.4-2.8-1.4-2.8 2.1-4.3 2-.8 3.7-1.4 3.9-1.2 1.7 2 3.7 7.9 3.7 11.2.2 7.8-6.2 15.3-14.1 16.3-9.5 1.3-23.9-8.6-29.7-20.3-7.6-15.5 4.8-30.8 20.5-25.3zm-18.7 41.6l17.8 17.7-2.7 2.8-2.7 2.8-8.1-8-8-8-6.3 6.3-6.2 6.3 8 7.9 8 7.9-2.2 2.3c-1.2 1.3-2.6 2.3-3.2 2.3-.6 0-9-7.9-18.6-17.5L44.5 208l2.8-2.7 2.7-2.8 7.3 7.3 7.2 7.2 6.3-6.2 6.2-6.3-7.2-7.2-7.2-7.2 2.4-2.6c1.3-1.4 2.6-2.5 2.9-2.5.3 0 8.6 8 18.3 17.7zm-29.9 30.1l17.8 17.8-2.6 2.4-2.6 2.4-11.7-11.7c-6.4-6.4-12-11.7-12.4-11.7-.4 0 2.1 8.1 5.4 18.1l6 18-2.3 2.5c-1.2 1.3-2.7 2.4-3.3 2.4-.6 0-9-7.9-18.6-17.5L14.5 238l2.7-2.7 2.7-2.7 12.3 12.2c6.7 6.7 12.4 12.2 12.5 12.2.1 0-2.4-7.8-5.7-17.3-3.3-9.6-6-18-6-18.7 0-1.4 3.8-6 4.9-6 .4 0 8.6 8 18.4 17.8zM113 256v27H58.5l27-27c14.8-14.9 27.1-27 27.2-27 .2 0 .3 12.1.3 27zm56.8 55.6l-.3 27.5h-54l-.3-27.5-.2-27.6h55l-.2 27.6zM56.6 338.7c-.3.3-46.4.6-53.1.3-.5 0 11.2-12.2 26-27l27-27 .3 26.6c.1 14.7.1 26.9-.2 27.1zm56.4 29.8V396H58v-55h55v27.5zm112-27.2c0 .1-12.1 12.4-27 27.2l-27 27V341h27c14.9 0 27 .1 27 .3zM57.3 397.8l55.7 55.7-56 56-56 56V453.7c0-61.4.1-111.7.3-111.7.1 0 25.3 25.1 56 55.8zm111.7-.5c0 .1-12.1 12.4-27 27.2l-27 27V397h27c14.9 0 27 .1 27 .3z" fill="#000085"/><path d="M128.7 153c2.6 4.9 5.1 9 5.4 9 .7 0 9.1-8.2 8.7-8.5-.9-.6-18.1-9.5-18.4-9.5-.3 0 1.7 4 4.3 9zM99.2 14.3L84.9 28.6 99 42.5c7.8 7.7 14.4 14.2 14.8 14.5.4.2-5.6-6-13.3-13.8L86.5 29l14-14C108.1 7.4 114.2.8 113.9.6c-.3-.3-6.9 5.9-14.7 13.7z" fill="#000085"/><path d="M114 28.5c0 .5 6.2 7.2 13.7 14.7L141.5 57l-14 14c-7.7 7.7-13.5 14-13 14 .6 0 7.3-6.3 15-14l14-14-14.8-14.8C120.6 34.1 114 28 114 28.5zM98.5 496l-14 14L99 524.5c7.9 7.9 14.6 14.2 14.9 13.9.3-.2-5.8-6.8-13.4-14.4l-14-14 14-14c7.7-7.7 13.5-14 13-14-.6 0-7.3 6.3-15 14z" fill="#000085"/><path d="M114.3 510.5c.4.5 6.7 7 14 14.2l13.2 13.3-13.8 13.8c-7.5 7.5-13.7 14.2-13.7 14.7s6.5-5.5 14.4-13.4c8.3-8.3 14.2-14.9 13.8-15.5-.4-.6-7-7.2-14.7-14.6-7.7-7.4-13.6-13.1-13.2-12.5z" fill="#000085"/></symbol></svg>